<?xml version="1.0"?>
<svg version="1.1" xmlns="http://www.w3.org/2000/svg" xmlns:xlink="http://www.w3.org/1999/xlink" width="240" height="120">
    <desc iVinci="yes" version="4.4" gridStep="20" showGrid="no" snapToGrid="no" codePlatform="0"/>
    <g id="Layer1">
        <g id="Shape1">
            <desc type="0" basicInfo-basicType="1" basicInfo-roundedRectRadius="12" basicInfo-polygonSides="6" basicInfo-starPoints="5" bounding="rect(-78.0003,-125.5,156,251.001)" text="" font-familyName="Helvetica" font-pixelSize="20" font-bold="0" font-underline="0" font-alignment="1" strokeStyle="0" markerStart="0" markerEnd="0" shadowEnabled="0" shadowOffsetX="0" shadowOffsetY="2" shadowBlur="4" shadowOpacity="160" blurEnabled="0" blurRadius="4" transform="matrix(0.237179,0,0,0.368401,26.9997,57.7345)" pers-center="0,0" pers-size="0,0" pers-start="0,0" pers-end="0,0" locked="0" mesh="" flag=""/>
            <path id="shapePath1" d="M8.49962,11.5001 L45.4996,11.5001 L45.4996,103.969 L8.49962,103.969 L8.49962,11.5001 Z" style="stroke:none;fill-rule:evenodd;fill:#03aaaa;fill-opacity:1;"/>
        </g>
        <g id="Shape2">
            <desc type="0" basicInfo-basicType="0" basicInfo-roundedRectRadius="12" basicInfo-polygonSides="6" basicInfo-starPoints="5" bounding="rect(0,0,0,0)" text="" font-familyName="Helvetica" font-pixelSize="20" font-bold="0" font-underline="0" font-alignment="1" strokeStyle="0" markerStart="0" markerEnd="0" shadowEnabled="0" shadowOffsetX="0" shadowOffsetY="2" shadowBlur="4" shadowOpacity="160" blurEnabled="0" blurRadius="4" transform="matrix(1,0,0,1,96.5,79.5)" pers-center="0,0" pers-size="0,0" pers-start="0,0" pers-end="0,0" locked="0" mesh="" flag=""/>
            <path id="shapePath2" d="M96.5,79.5 Z" style="stroke:none;fill-rule:evenodd;fill:#03aaaa;fill-opacity:1;"/>
        </g>
        <g id="Shape3">
            <desc type="0" basicInfo-basicType="0" basicInfo-roundedRectRadius="12" basicInfo-polygonSides="6" basicInfo-starPoints="5" bounding="rect(-45.5891,-82.5001,91.1781,164.999)" text="" font-familyName="Helvetica" font-pixelSize="20" font-bold="0" font-underline="0" font-alignment="1" strokeStyle="0" markerStart="0" markerEnd="0" shadowEnabled="0" shadowOffsetX="0" shadowOffsetY="2" shadowBlur="4" shadowOpacity="160" blurEnabled="0" blurRadius="4" transform="matrix(0.413191,0,0,0.363635,73.752,42.9998)" pers-center="0,0" pers-size="0,0" pers-start="0,0" pers-end="0,0" locked="0" mesh="" flag=""/>
            <path id="shapePath3" d="M55.4015,15.5453 C56.2882,34.5267 49.2474,70.0602 78.9532,72.9994 C83.9319,69.3214 86.4997,65.4192 90.1096,60.9995 C95.4143,45.3372 88.9911,28.2742 92.5889,13.7271 C80.9081,21.0735 87.739,40.3081 81.4325,52.6361 C76.9789,55.5526 69.6289,55.6829 67.7974,50.4543 C64.2124,38.2779 66.8465,19.0207 55.4015,12.9998 C55.3515,13.6606 54.3322,15.0404 55.4015,15.5453 Z" style="stroke:none;fill-rule:evenodd;fill:url(#radialGradientFill3);fill-opacity:1;"/><defs><radialGradient id="radialGradientFill3" gradientUnits="userSpaceOnUse" cx="41.5233" cy="42.9998" r="64.4574" fx="73.7519" fy="42.9998"><stop offset="0" stop-color="#a59e43" stop-opacity="1"/><stop offset="1" stop-color="#ffffff" stop-opacity="1"/></radialGradient></defs>
        </g>
        <g id="Shape4">
            <desc type="0" basicInfo-basicType="0" basicInfo-roundedRectRadius="12" basicInfo-polygonSides="6" basicInfo-starPoints="5" bounding="rect(-53.2966,-77.5001,106.592,154.999)" text="" font-familyName="Helvetica" font-pixelSize="20" font-bold="0" font-underline="0" font-alignment="1" strokeStyle="0" markerStart="0" markerEnd="0" shadowEnabled="0" shadowOffsetX="0" shadowOffsetY="2" shadowBlur="4" shadowOpacity="160" blurEnabled="0" blurRadius="4" transform="matrix(0.474632,0,0,0.387099,126.795,42.9995)" pers-center="0,0" pers-size="0,0" pers-start="0,0" pers-end="0,0" locked="0" mesh="" flag=""/>
            <path id="shapePath4" d="M101.974,72.9994 C102.287,53.3016 103.3,33.2009 101.499,13.7734 C103.294,14.1086 104.225,16.6985 106.245,17.6445 C122.457,24.8954 113.061,42.9793 124.756,52.0963 L128.078,52.0963 C130.036,39.269 129.349,20.7645 140.419,12.9993 C139.862,31.6126 154.261,52.6122 151.81,70.2899 C144.592,67.3323 145.669,53.8933 142.317,47.4514 C137.374,52.529 118.845,64.5322 117.162,52.0963 C116.034,51.4876 115.749,50.6988 114.314,50.9349 C116.938,60.0741 103.479,67.1663 101.974,72.9994 Z" style="stroke:none;fill-rule:evenodd;fill:url(#radialGradientFill4);fill-opacity:1;"/><defs><radialGradient id="radialGradientFill4" gradientUnits="userSpaceOnUse" cx="89.774" cy="42.9995" r="74.0426" fx="126.795" fy="42.9995"><stop offset="0" stop-color="#a59e43" stop-opacity="1"/><stop offset="1" stop-color="#ffffff" stop-opacity="1"/></radialGradient></defs>
        </g>
        <g id="Shape5">
            <desc type="0" basicInfo-basicType="0" basicInfo-roundedRectRadius="12" basicInfo-polygonSides="6" basicInfo-starPoints="5" bounding="rect(-51.1014,-76.8166,102.201,153.634)" text="" font-familyName="Helvetica" font-pixelSize="20" font-bold="0" font-underline="0" font-alignment="1" strokeStyle="0" markerStart="0" markerEnd="0" shadowEnabled="0" shadowOffsetX="0" shadowOffsetY="2" shadowBlur="4" shadowOpacity="160" blurEnabled="0" blurRadius="4" transform="matrix(0.491201,0,0,0.390535,185.1,43)" pers-center="0,0" pers-size="0,0" pers-start="0,0" pers-end="0,0" locked="0" mesh="" flag=""/>
            <path id="shapePath5" d="M162.455,68.1708 C163.142,49.621 162.101,31.2259 159.999,13.1055 C177.556,13.4838 212.292,9.27186 210.101,30.6797 C200.876,35.3914 188.462,38.5646 180.138,40.8336 C188.889,49.5938 212.203,48.408 206.663,63.4847 C196.35,70.8669 177.09,77.0192 165.402,69.7331 C163.985,68.5308 163.174,67.8754 162.455,66.9992 C175.38,67.38 194.094,69.1423 192.418,54.5023 C185.32,50.2475 171.255,48.4135 172.77,38.8809 C179.008,34.4677 190.71,32.1609 189.471,24.0406 C184.115,21.6252 177.94,19.6291 171.297,20.1352 C170.341,35.184 164.659,49.0795 166.876,65.8277 C165.646,66.4562 164.882,67.5115 162.455,68.1708 Z" style="stroke:none;fill-rule:evenodd;fill:url(#radialGradientFill5);fill-opacity:1;"/><defs><radialGradient id="radialGradientFill5" gradientUnits="userSpaceOnUse" cx="146.786" cy="43.0001" r="76.6272" fx="185.1" fy="43"><stop offset="0" stop-color="#a59e43" stop-opacity="1"/><stop offset="1" stop-color="#ffffff" stop-opacity="1"/></radialGradient></defs>
        </g>
        <g id="Shape6">
            <desc type="2" basicInfo-basicType="0" basicInfo-roundedRectRadius="12" basicInfo-polygonSides="6" basicInfo-starPoints="5" bounding="rect(-93.5,-15.5,187,31)" text="Umanga Bista" font-familyName="Helvetica CY" font-pixelSize="32" font-bold="1" font-underline="0" font-alignment="0" strokeStyle="0" markerStart="0" markerEnd="0" shadowEnabled="0" shadowOffsetX="0" shadowOffsetY="2" shadowBlur="4" shadowOpacity="160" blurEnabled="0" blurRadius="4" transform="matrix(1,0,0,1,146.431,94.5039)" pers-center="0,0" pers-size="0,0" pers-start="0,0" pers-end="0,0" locked="0" mesh="" flag=""/>
            <path id="shapePath6" d="M70.0868,95.0977 C70.0868,97.4831 69.441,99.3945 68.1493,100.832 C66.8056,102.322 64.9514,103.066 62.5868,103.066 C60.2952,103.066 58.4358,102.306 57.0087,100.785 C55.6129,99.2956 54.9149,97.3997 54.9149,95.0977 L54.9149,79.0039 L58.8524,79.0039 L58.8524,95.4883 C58.8524,97.9779 60.0556,99.2227 62.4618,99.2227 C64.9202,99.2227 66.1493,97.9779 66.1493,95.4883 L66.1493,79.0039 L70.0868,79.0039 L70.0868,95.0977 M93.4931,102.332 L89.8212,102.332 L89.8212,90.0508 C89.8212,89.4883 89.6363,89.043 89.2665,88.7148 C88.8967,88.3867 88.4306,88.2227 87.8681,88.2227 C86.9931,88.2227 86.3212,88.5977 85.8524,89.3477 C85.4879,89.931 85.3056,90.6029 85.3056,91.3633 L85.3056,102.332 L81.6337,102.332 L81.6337,90.0508 C81.6337,88.832 80.9618,88.2227 79.6181,88.2227 C78.7952,88.2227 78.1597,88.5508 77.7118,89.207 C77.316,89.7799 77.1181,90.4987 77.1181,91.3633 L77.1181,102.332 L73.4306,102.332 L73.4306,84.9883 L77.1181,84.9883 L77.1181,87.582 C78.2222,85.6654 79.4931,84.707 80.9306,84.707 C82.5764,84.707 83.8993,85.5664 84.8993,87.2852 C85.3889,86.4518 85.8681,85.8529 86.3368,85.4883 C87.0035,84.9674 87.8316,84.707 88.8212,84.707 C91.9358,84.707 93.4931,86.5716 93.4931,90.3008 L93.4931,102.332 M108.962,102.332 L105.056,102.332 C104.795,101.895 104.665,101.374 104.665,100.77 L104.665,100.598 C103.3,102.243 101.795,103.066 100.149,103.066 C98.7222,103.066 97.6389,102.572 96.8993,101.582 C96.2327,100.707 95.8993,99.5299 95.8993,98.0508 C95.8993,96.4049 96.2743,95.1602 97.0243,94.3164 C97.5868,93.681 98.5399,93.1445 99.8837,92.707 L103.712,91.457 C104.326,91.1966 104.634,90.6185 104.634,89.7227 C104.634,88.3164 103.889,87.6133 102.399,87.6133 C100.774,87.6133 99.9097,88.6602 99.8056,90.7539 L96.3524,90.7539 C96.3524,86.7227 98.316,84.707 102.243,84.707 C106.16,84.707 108.118,86.5404 108.118,90.207 L108.118,99.6758 C108.118,100.447 108.399,101.129 108.962,101.723 L108.962,102.332 M104.634,95.4883 L104.634,93.8477 C103.957,94.2435 102.826,94.6602 101.243,95.0977 C100.795,95.2227 100.407,95.5039 100.079,95.9414 C99.7509,96.3789 99.5868,96.832 99.5868,97.3008 C99.5868,98.9258 100.191,99.7383 101.399,99.7383 C103.556,99.7383 104.634,98.3216 104.634,95.4883 M124.134,102.332 L120.446,102.332 L120.446,91.582 C120.446,90.4883 120.342,89.7174 120.134,89.2695 C119.811,88.5716 119.16,88.2227 118.181,88.2227 C117.264,88.2227 116.53,88.4779 115.977,88.9883 C115.394,89.5195 115.102,90.2331 115.102,91.1289 L115.102,102.332 L111.446,102.332 L111.446,84.9883 L115.102,84.9883 L115.102,87.6133 C115.915,85.6758 117.097,84.707 118.649,84.707 C122.306,84.707 124.134,86.7122 124.134,90.7227 L124.134,102.332 M139.993,102.785 C139.993,104.973 139.337,106.634 138.024,107.77 C136.795,108.842 135.076,109.379 132.868,109.379 C131.306,109.379 129.957,108.978 128.821,108.176 C127.55,107.27 126.915,106.066 126.915,104.566 L126.915,104.348 L130.774,104.348 L130.774,104.379 C130.774,104.962 131.076,105.441 131.681,105.816 C132.201,106.139 132.774,106.301 133.399,106.301 C134.253,106.301 134.99,105.96 135.61,105.277 C136.23,104.595 136.54,103.827 136.54,102.973 L136.54,100.535 C135.55,102.223 134.28,103.066 132.727,103.066 C130.582,103.066 128.983,102.098 127.931,100.16 C127.097,98.6185 126.681,96.6758 126.681,94.332 C126.681,91.7279 127.05,89.6185 127.79,88.0039 C128.8,85.806 130.457,84.707 132.759,84.707 C134.446,84.707 135.707,85.6758 136.54,87.6133 L136.54,84.9883 L139.993,84.9883 L139.993,102.785 M136.602,94.1133 C136.602,92.6237 136.41,91.3685 136.024,90.3477 C135.462,88.8685 134.556,88.1289 133.306,88.1289 C131.306,88.1289 130.306,90.1237 130.306,94.1133 C130.306,97.8841 131.306,99.7695 133.306,99.7695 C135.503,99.7695 136.602,97.8841 136.602,94.1133 M155.556,102.332 L151.649,102.332 C151.389,101.895 151.259,101.374 151.259,100.77 L151.259,100.598 C149.894,102.243 148.389,103.066 146.743,103.066 C145.316,103.066 144.233,102.572 143.493,101.582 C142.826,100.707 142.493,99.5299 142.493,98.0508 C142.493,96.4049 142.868,95.1602 143.618,94.3164 C144.181,93.681 145.134,93.1445 146.477,92.707 L150.306,91.457 C150.92,91.1966 151.227,90.6185 151.227,89.7227 C151.227,88.3164 150.483,87.6133 148.993,87.6133 C147.368,87.6133 146.503,88.6602 146.399,90.7539 L142.946,90.7539 C142.946,86.7227 144.91,84.707 148.837,84.707 C152.753,84.707 154.712,86.5404 154.712,90.207 L154.712,99.6758 C154.712,100.447 154.993,101.129 155.556,101.723 L155.556,102.332 M151.227,95.4883 L151.227,93.8477 C150.55,94.2435 149.42,94.6602 147.837,95.0977 C147.389,95.2227 147.001,95.5039 146.673,95.9414 C146.345,96.3789 146.181,96.832 146.181,97.3008 C146.181,98.9258 146.785,99.7383 147.993,99.7383 C150.149,99.7383 151.227,98.3216 151.227,95.4883 M181.212,94.7539 C181.212,97.2539 180.509,99.2487 179.102,100.738 C178.092,101.801 176.545,102.332 174.462,102.332 L165.821,102.332 L165.821,79.0039 L174.368,79.0039 C176.16,79.0039 177.652,79.5742 178.845,80.7148 C180.037,81.8555 180.634,83.3216 180.634,85.1133 C180.634,87.1029 180.03,88.7018 178.821,89.9102 C179.436,90.2747 179.972,90.8685 180.431,91.6914 C180.951,92.6393 181.212,93.6602 181.212,94.7539 M176.602,85.6602 C176.602,83.681 175.795,82.6914 174.181,82.6914 L169.759,82.6914 L169.759,88.4727 L173.977,88.4727 C175.727,88.4727 176.602,87.5352 176.602,85.6602 M177.087,95.0664 C177.087,93.1289 176.139,92.1602 174.243,92.1602 L169.759,92.1602 L169.759,98.6445 L174.149,98.6445 C176.108,98.6445 177.087,97.4518 177.087,95.0664 M188.056,83.0039 L184.384,83.0039 L184.384,79.0039 L188.056,79.0039 L188.056,83.0039 M188.056,102.332 L184.384,102.332 L184.384,84.9883 L188.056,84.9883 L188.056,102.332 M203.54,96.9258 C203.54,101.02 201.368,103.066 197.024,103.066 C195.181,103.066 193.686,102.561 192.54,101.551 C191.352,100.499 190.733,99.0612 190.681,97.2383 L194.306,97.2383 C194.785,99.1237 195.847,100.066 197.493,100.066 C198.118,100.066 198.66,99.8112 199.118,99.3008 C199.535,98.8424 199.743,98.3685 199.743,97.8789 C199.743,96.8997 199.238,96.2383 198.227,95.8945 L194.524,94.6445 C192.306,93.8945 191.196,92.4362 191.196,90.2695 C191.196,86.5612 193.17,84.707 197.118,84.707 C198.92,84.707 200.384,85.2383 201.509,86.3008 C202.634,87.3633 203.196,88.7904 203.196,90.582 L199.649,90.582 C199.576,88.707 198.655,87.7695 196.884,87.7695 C196.342,87.7695 195.858,87.957 195.431,88.332 C194.972,88.7279 194.743,89.1914 194.743,89.7227 C194.743,90.5664 195.035,91.0872 195.618,91.2852 L200.212,92.832 C201.024,93.1029 201.743,93.5664 202.368,94.2227 C203.149,95.0352 203.54,95.9362 203.54,96.9258 M212.415,88.4414 L210.368,88.4414 L210.368,98.4258 C210.368,99.4258 210.571,99.9258 210.977,99.9258 L212.352,99.9258 L212.352,102.645 C211.675,102.926 210.983,103.066 210.274,103.066 C209.274,103.066 208.425,102.738 207.727,102.082 C207.03,101.426 206.681,100.603 206.681,99.6133 L206.681,88.4414 L204.899,88.4414 L204.899,84.9883 L206.681,84.9883 L206.681,80.6289 L210.368,80.6289 L210.368,84.9883 L212.415,84.9883 L212.415,88.4414 M227.009,102.332 L223.102,102.332 C222.842,101.895 222.712,101.374 222.712,100.77 L222.712,100.598 C221.347,102.243 219.842,103.066 218.196,103.066 C216.769,103.066 215.686,102.572 214.946,101.582 C214.28,100.707 213.946,99.5299 213.946,98.0508 C213.946,96.4049 214.321,95.1602 215.071,94.3164 C215.634,93.681 216.587,93.1445 217.931,92.707 L221.759,91.457 C222.373,91.1966 222.681,90.6185 222.681,89.7227 C222.681,88.3164 221.936,87.6133 220.446,87.6133 C218.821,87.6133 217.957,88.6602 217.852,90.7539 L214.399,90.7539 C214.399,86.7227 216.363,84.707 220.29,84.707 C224.207,84.707 226.165,86.5404 226.165,90.207 L226.165,99.6758 C226.165,100.447 226.446,101.129 227.009,101.723 L227.009,102.332 M222.681,95.4883 L222.681,93.8477 C222.003,94.2435 220.873,94.6602 219.29,95.0977 C218.842,95.2227 218.454,95.5039 218.126,95.9414 C217.798,96.3789 217.634,96.832 217.634,97.3008 C217.634,98.9258 218.238,99.7383 219.446,99.7383 C221.602,99.7383 222.681,98.3216 222.681,95.4883 " style="stroke:none;fill-rule:nonzero;fill:#616161;fill-opacity:1;"/>
        </g>
    </g>
</svg>
