<?xml version="1.0"?>
<svg version="1.1" xmlns="http://www.w3.org/2000/svg" xmlns:xlink="http://www.w3.org/1999/xlink" width="240" height="120">
    <desc iVinci="yes" version="4.5" gridStep="20" showGrid="no" snapToGrid="no" codePlatform="0"/>
    <g id="Layer1" opacity="1">
        <g id="Shape1">
            <desc shapeID="1" type="0" basicInfo-basicType="1" basicInfo-roundedRectRadius="12" basicInfo-polygonSides="6" basicInfo-starPoints="5" bounding="rect(-78.0005,-125.5,156,251.001)" text="" font-familyName="Helvetica" font-pixelSize="20" font-bold="0" font-underline="0" font-alignment="1" strokeStyle="0" markerStart="0" markerEnd="0" shadowEnabled="0" shadowOffsetX="0" shadowOffsetY="2" shadowBlur="4" shadowOpacity="160" blurEnabled="0" blurRadius="4" transform="matrix(0.237179,0,0,0.389954,26.9996,60.4395)" pers-center="0,0" pers-size="0,0" pers-start="0,0" pers-end="0,0" locked="0" mesh="" flag=""/>
            <path id="shapePath1" d="M8.49955,11.5003 L45.4995,11.5003 L45.4995,109.379 L8.49955,109.379 L8.49955,11.5003 Z" style="stroke:none;fill-rule:evenodd;fill:#143e7b;fill-opacity:1;"/>
        </g>
        <g id="Shape2">
            <desc shapeID="2" type="0" basicInfo-basicType="0" basicInfo-roundedRectRadius="12" basicInfo-polygonSides="6" basicInfo-starPoints="5" bounding="rect(0,0,0,0)" text="" font-familyName="Helvetica" font-pixelSize="20" font-bold="0" font-underline="0" font-alignment="1" strokeStyle="0" markerStart="0" markerEnd="0" shadowEnabled="0" shadowOffsetX="0" shadowOffsetY="2" shadowBlur="4" shadowOpacity="160" blurEnabled="0" blurRadius="4" transform="matrix(1,0,0,1,96.5,79.5)" pers-center="0,0" pers-size="0,0" pers-start="0,0" pers-end="0,0" locked="0" mesh="" flag=""/>
            <path id="shapePath2" d="M96.5,79.5 Z" style="stroke:none;fill-rule:evenodd;fill:#03aaaa;fill-opacity:1;"/>
        </g>
        <g id="Shape3">
            <desc shapeID="3" type="0" basicInfo-basicType="0" basicInfo-roundedRectRadius="12" basicInfo-polygonSides="6" basicInfo-starPoints="5" bounding="rect(-45.5891,-82.5006,91.1781,164.999)" text="" font-familyName="Helvetica" font-pixelSize="20" font-bold="0" font-underline="0" font-alignment="1" strokeStyle="0" markerStart="0" markerEnd="0" shadowEnabled="0" shadowOffsetX="0" shadowOffsetY="2" shadowBlur="4" shadowOpacity="160" blurEnabled="0" blurRadius="4" transform="matrix(0.413191,0,0,0.363635,73.7519,42.9999)" pers-center="0,0" pers-size="0,0" pers-start="0,0" pers-end="0,0" locked="0" mesh="" flag=""/>
            <path id="shapePath3" d="M55.4015,15.5453 C56.2882,34.5267 49.2474,70.0602 78.9532,72.9994 C83.9319,69.3214 86.4997,65.4192 90.1096,60.9995 C95.4143,45.3372 88.9911,28.2742 92.5889,13.7271 C80.9081,21.0735 87.739,40.3081 81.4325,52.6361 C76.9789,55.5526 69.6289,55.6829 67.7974,50.4543 C64.2124,38.2779 66.8465,19.0207 55.4015,12.9998 C55.3515,13.6606 54.3322,15.0404 55.4015,15.5453 Z" style="stroke:none;fill-rule:evenodd;fill:url(#radialGradientFill3);fill-opacity:1;"/><defs><radialGradient id="radialGradientFill3" gradientUnits="userSpaceOnUse" cx="41.5232" cy="42.9999" r="64.4574" fx="73.7519" fy="42.9999"><stop offset="0" stop-color="#880e12" stop-opacity="1"/><stop offset="1" stop-color="#ffffff" stop-opacity="1"/></radialGradient></defs>
        </g>
        <g id="Shape4">
            <desc shapeID="4" type="0" basicInfo-basicType="0" basicInfo-roundedRectRadius="12" basicInfo-polygonSides="6" basicInfo-starPoints="5" bounding="rect(-53.2968,-77.5005,106.592,154.999)" text="" font-familyName="Helvetica" font-pixelSize="20" font-bold="0" font-underline="0" font-alignment="1" strokeStyle="0" markerStart="0" markerEnd="0" shadowEnabled="0" shadowOffsetX="0" shadowOffsetY="2" shadowBlur="4" shadowOpacity="160" blurEnabled="0" blurRadius="4" transform="matrix(0.474632,0,0,0.387099,126.795,42.9997)" pers-center="0,0" pers-size="0,0" pers-start="0,0" pers-end="0,0" locked="0" mesh="" flag=""/>
            <path id="shapePath4" d="M101.974,72.9994 C102.287,53.3016 103.3,33.2009 101.499,13.7734 C103.294,14.1086 104.225,16.6985 106.245,17.6445 C122.457,24.8954 113.061,42.9793 124.756,52.0963 L128.078,52.0963 C130.036,39.269 129.349,20.7645 140.419,12.9993 C139.862,31.6126 154.261,52.6122 151.81,70.2899 C144.592,67.3323 145.669,53.8933 142.317,47.4514 C137.374,52.529 118.845,64.5322 117.162,52.0963 C116.034,51.4876 115.749,50.6988 114.314,50.9349 C116.938,60.0741 103.479,67.1663 101.974,72.9994 Z" style="stroke:none;fill-rule:evenodd;fill:url(#radialGradientFill4);fill-opacity:1;"/><defs><radialGradient id="radialGradientFill4" gradientUnits="userSpaceOnUse" cx="89.7747" cy="42.9997" r="74.0426" fx="126.795" fy="42.9997"><stop offset="0" stop-color="#880e12" stop-opacity="1"/><stop offset="1" stop-color="#ffffff" stop-opacity="1"/></radialGradient></defs>
        </g>
        <g id="Shape5">
            <desc shapeID="5" type="0" basicInfo-basicType="0" basicInfo-roundedRectRadius="12" basicInfo-polygonSides="6" basicInfo-starPoints="5" bounding="rect(-51.1013,-76.8166,102.2,153.634)" text="" font-familyName="Helvetica" font-pixelSize="20" font-bold="0" font-underline="0" font-alignment="1" strokeStyle="0" markerStart="0" markerEnd="0" shadowEnabled="0" shadowOffsetX="0" shadowOffsetY="2" shadowBlur="4" shadowOpacity="160" blurEnabled="0" blurRadius="4" transform="matrix(0.491201,0,0,0.390535,185.1,43)" pers-center="0,0" pers-size="0,0" pers-start="0,0" pers-end="0,0" locked="0" mesh="" flag=""/>
            <path id="shapePath5" d="M162.455,68.1708 C163.142,49.621 162.101,31.2259 159.999,13.1055 C177.556,13.4838 212.292,9.27186 210.101,30.6797 C200.876,35.3914 188.462,38.5646 180.138,40.8336 C188.889,49.5938 212.203,48.408 206.663,63.4847 C196.35,70.8669 177.09,77.0192 165.402,69.7331 C163.985,68.5308 163.174,67.8754 162.455,66.9992 C175.38,67.38 194.094,69.1423 192.418,54.5023 C185.32,50.2475 171.255,48.4135 172.77,38.8809 C179.008,34.4677 190.71,32.1609 189.471,24.0406 C184.115,21.6252 177.94,19.6291 171.297,20.1352 C170.341,35.184 164.659,49.0795 166.876,65.8277 C165.646,66.4562 164.882,67.5115 162.455,68.1708 Z" style="stroke:none;fill-rule:evenodd;fill:url(#radialGradientFill5);fill-opacity:1;"/><defs><radialGradient id="radialGradientFill5" gradientUnits="userSpaceOnUse" cx="146.786" cy="43.0001" r="76.6272" fx="185.1" fy="43"><stop offset="0" stop-color="#880e12" stop-opacity="1"/><stop offset="1" stop-color="#ffffff" stop-opacity="1"/></radialGradient></defs>
        </g>
        <g id="Shape6">
            <desc shapeID="6" type="2" basicInfo-basicType="0" basicInfo-roundedRectRadius="12" basicInfo-polygonSides="6" basicInfo-starPoints="5" bounding="rect(-87.5,-15.5,175,31)" text="Umanga Bista" font-familyName="Helvetica CY" font-pixelSize="32" font-bold="1" font-underline="0" font-alignment="0" strokeStyle="0" markerStart="0" markerEnd="0" shadowEnabled="0" shadowOffsetX="0" shadowOffsetY="2" shadowBlur="4" shadowOpacity="160" blurEnabled="0" blurRadius="4" transform="matrix(1,0,0,1,140.431,98.5039)" pers-center="0,0" pers-size="0,0" pers-start="0,0" pers-end="0,0" locked="0" mesh="" flag=""/>
            <path id="shapePath6" d="M70.0872,99.0976 C70.0872,101.483 69.4414,103.395 68.1497,104.832 C66.806,106.322 64.9518,107.066 62.5872,107.066 C60.2956,107.066 58.4362,106.306 57.0091,104.785 C55.6133,103.296 54.9154,101.4 54.9154,99.0976 L54.9154,83.0039 L58.8529,83.0039 L58.8529,99.4883 C58.8529,101.978 60.056,103.223 62.4622,103.223 C64.9206,103.223 66.1497,101.978 66.1497,99.4883 L66.1497,83.0039 L70.0872,83.0039 L70.0872,99.0976 M93.4935,106.332 L89.8216,106.332 L89.8216,94.0508 C89.8216,93.4883 89.6367,93.043 89.2669,92.7148 C88.8971,92.3867 88.431,92.2226 87.8685,92.2226 C86.9935,92.2226 86.3216,92.5976 85.8529,93.3476 C85.4883,93.931 85.306,94.6029 85.306,95.3633 L85.306,106.332 L81.6341,106.332 L81.6341,94.0508 C81.6341,92.832 80.9622,92.2226 79.6185,92.2226 C78.7956,92.2226 78.1602,92.5508 77.7122,93.207 C77.3164,93.7799 77.1185,94.4987 77.1185,95.3633 L77.1185,106.332 L73.431,106.332 L73.431,88.9883 L77.1185,88.9883 L77.1185,91.582 C78.2227,89.6654 79.4935,88.707 80.931,88.707 C82.5768,88.707 83.8997,89.5664 84.8997,91.2851 C85.3893,90.4518 85.8685,89.8529 86.3372,89.4883 C87.0039,88.9674 87.832,88.707 88.8216,88.707 C91.9362,88.707 93.4935,90.5716 93.4935,94.3008 L93.4935,106.332 M108.962,106.332 L105.056,106.332 C104.796,105.895 104.665,105.374 104.665,104.77 L104.665,104.598 C103.301,106.243 101.796,107.066 100.15,107.066 C98.7227,107.066 97.6393,106.572 96.8997,105.582 C96.2331,104.707 95.8997,103.53 95.8997,102.051 C95.8997,100.405 96.2747,99.1601 97.0247,98.3164 C97.5872,97.681 98.5404,97.1445 99.8841,96.707 L103.712,95.457 C104.327,95.1966 104.634,94.6185 104.634,93.7226 C104.634,92.3164 103.889,91.6133 102.4,91.6133 C100.775,91.6133 99.9102,92.6601 99.806,94.7539 L96.3529,94.7539 C96.3529,90.7226 98.3164,88.707 102.243,88.707 C106.16,88.707 108.118,90.5404 108.118,94.207 L108.118,103.676 C108.118,104.447 108.4,105.129 108.962,105.723 L108.962,106.332 M104.634,99.4883 L104.634,97.8476 C103.957,98.2435 102.827,98.6601 101.243,99.0976 C100.796,99.2226 100.408,99.5039 100.079,99.9414 C99.7513,100.379 99.5872,100.832 99.5872,101.301 C99.5872,102.926 100.191,103.738 101.4,103.738 C103.556,103.738 104.634,102.322 104.634,99.4883 M124.134,106.332 L120.447,106.332 L120.447,95.582 C120.447,94.4883 120.342,93.7174 120.134,93.2695 C119.811,92.5716 119.16,92.2226 118.181,92.2226 C117.264,92.2226 116.53,92.4779 115.978,92.9883 C115.395,93.5195 115.103,94.2331 115.103,95.1289 L115.103,106.332 L111.447,106.332 L111.447,88.9883 L115.103,88.9883 L115.103,91.6133 C115.915,89.6758 117.098,88.707 118.65,88.707 C122.306,88.707 124.134,90.7122 124.134,94.7226 L124.134,106.332 M139.993,106.785 C139.993,108.973 139.337,110.634 138.025,111.77 C136.796,112.842 135.077,113.379 132.868,113.379 C131.306,113.379 129.957,112.978 128.822,112.176 C127.551,111.27 126.915,110.066 126.915,108.566 L126.915,108.348 L130.775,108.348 L130.775,108.379 C130.775,108.962 131.077,109.441 131.681,109.816 C132.202,110.139 132.775,110.301 133.4,110.301 C134.254,110.301 134.991,109.96 135.611,109.277 C136.23,108.595 136.54,107.827 136.54,106.973 L136.54,104.535 C135.551,106.223 134.28,107.066 132.728,107.066 C130.582,107.066 128.983,106.098 127.931,104.16 C127.098,102.618 126.681,100.676 126.681,98.332 C126.681,95.7279 127.051,93.6185 127.79,92.0039 C128.801,89.806 130.457,88.707 132.759,88.707 C134.447,88.707 135.707,89.6758 136.54,91.6133 L136.54,88.9883 L139.993,88.9883 L139.993,106.785 M136.603,98.1133 C136.603,96.6237 136.41,95.3685 136.025,94.3476 C135.462,92.8685 134.556,92.1289 133.306,92.1289 C131.306,92.1289 130.306,94.1237 130.306,98.1133 C130.306,101.884 131.306,103.77 133.306,103.77 C135.504,103.77 136.603,101.884 136.603,98.1133 M155.556,106.332 L151.65,106.332 C151.389,105.895 151.259,105.374 151.259,104.77 L151.259,104.598 C149.895,106.243 148.389,107.066 146.743,107.066 C145.316,107.066 144.233,106.572 143.493,105.582 C142.827,104.707 142.493,103.53 142.493,102.051 C142.493,100.405 142.868,99.1601 143.618,98.3164 C144.181,97.681 145.134,97.1445 146.478,96.707 L150.306,95.457 C150.921,95.1966 151.228,94.6185 151.228,93.7226 C151.228,92.3164 150.483,91.6133 148.993,91.6133 C147.368,91.6133 146.504,92.6601 146.4,94.7539 L142.947,94.7539 C142.947,90.7226 144.91,88.707 148.837,88.707 C152.754,88.707 154.712,90.5404 154.712,94.207 L154.712,103.676 C154.712,104.447 154.993,105.129 155.556,105.723 L155.556,106.332 M151.228,99.4883 L151.228,97.8476 C150.551,98.2435 149.421,98.6601 147.837,99.0976 C147.389,99.2226 147.001,99.5039 146.673,99.9414 C146.345,100.379 146.181,100.832 146.181,101.301 C146.181,102.926 146.785,103.738 147.993,103.738 C150.15,103.738 151.228,102.322 151.228,99.4883 M181.212,98.7539 C181.212,101.254 180.509,103.249 179.103,104.738 C178.092,105.801 176.546,106.332 174.462,106.332 L165.822,106.332 L165.822,83.0039 L174.368,83.0039 C176.16,83.0039 177.652,83.5742 178.845,84.7148 C180.038,85.8555 180.634,87.3216 180.634,89.1133 C180.634,91.1029 180.03,92.7018 178.822,93.9101 C179.436,94.2747 179.973,94.8685 180.431,95.6914 C180.952,96.6393 181.212,97.6601 181.212,98.7539 M176.603,89.6601 C176.603,87.681 175.796,86.6914 174.181,86.6914 L169.759,86.6914 L169.759,92.4726 L173.978,92.4726 C175.728,92.4726 176.603,91.5351 176.603,89.6601 M177.087,99.0664 C177.087,97.1289 176.139,96.1601 174.243,96.1601 L169.759,96.1601 L169.759,102.645 L174.15,102.645 C176.108,102.645 177.087,101.452 177.087,99.0664 M188.056,87.0039 L184.384,87.0039 L184.384,83.0039 L188.056,83.0039 L188.056,87.0039 M188.056,106.332 L184.384,106.332 L184.384,88.9883 L188.056,88.9883 L188.056,106.332 M203.54,100.926 C203.54,105.02 201.368,107.066 197.025,107.066 C195.181,107.066 193.686,106.561 192.54,105.551 C191.353,104.499 190.733,103.061 190.681,101.238 L194.306,101.238 C194.785,103.124 195.848,104.066 197.493,104.066 C198.118,104.066 198.66,103.811 199.118,103.301 C199.535,102.842 199.743,102.368 199.743,101.879 C199.743,100.9 199.238,100.238 198.228,99.8945 L194.525,98.6445 C192.306,97.8945 191.197,96.4362 191.197,94.2695 C191.197,90.5612 193.171,88.707 197.118,88.707 C198.921,88.707 200.384,89.2383 201.509,90.3008 C202.634,91.3633 203.197,92.7904 203.197,94.582 L199.65,94.582 C199.577,92.707 198.655,91.7695 196.884,91.7695 C196.342,91.7695 195.858,91.957 195.431,92.332 C194.973,92.7279 194.743,93.1914 194.743,93.7226 C194.743,94.5664 195.035,95.0872 195.618,95.2851 L200.212,96.832 C201.025,97.1029 201.743,97.5664 202.368,98.2226 C203.15,99.0351 203.54,99.9362 203.54,100.926 M212.415,92.4414 L210.368,92.4414 L210.368,102.426 C210.368,103.426 210.572,103.926 210.978,103.926 L212.353,103.926 L212.353,106.645 C211.676,106.926 210.983,107.066 210.275,107.066 C209.275,107.066 208.426,106.738 207.728,106.082 C207.03,105.426 206.681,104.603 206.681,103.613 L206.681,92.4414 L204.9,92.4414 L204.9,88.9883 L206.681,88.9883 L206.681,84.6289 L210.368,84.6289 L210.368,88.9883 L212.415,88.9883 L212.415,92.4414 M227.009,106.332 L223.103,106.332 C222.842,105.895 222.712,105.374 222.712,104.77 L222.712,104.598 C221.348,106.243 219.842,107.066 218.197,107.066 C216.77,107.066 215.686,106.572 214.947,105.582 C214.28,104.707 213.947,103.53 213.947,102.051 C213.947,100.405 214.322,99.1601 215.072,98.3164 C215.634,97.681 216.587,97.1445 217.931,96.707 L221.759,95.457 C222.374,95.1966 222.681,94.6185 222.681,93.7226 C222.681,92.3164 221.936,91.6133 220.447,91.6133 C218.822,91.6133 217.957,92.6601 217.853,94.7539 L214.4,94.7539 C214.4,90.7226 216.363,88.707 220.29,88.707 C224.207,88.707 226.165,90.5404 226.165,94.207 L226.165,103.676 C226.165,104.447 226.447,105.129 227.009,105.723 L227.009,106.332 M222.681,99.4883 L222.681,97.8476 C222.004,98.2435 220.874,98.6601 219.29,99.0976 C218.842,99.2226 218.454,99.5039 218.126,99.9414 C217.798,100.379 217.634,100.832 217.634,101.301 C217.634,102.926 218.238,103.738 219.447,103.738 C221.603,103.738 222.681,102.322 222.681,99.4883 Z" style="stroke:none;fill-rule:nonzero;fill:#746814;fill-opacity:1;"/>
        </g>
    </g>
</svg>
