<?xml version="1.0"?>
<svg version="1.1" xmlns="http://www.w3.org/2000/svg" xmlns:xlink="http://www.w3.org/1999/xlink" width="320" height="164">
    <desc iVinci="yes" version="4.4" gridStep="20" showGrid="yes" snapToGrid="no" codePlatform="0"/>
    <g id="Layer1">
        <g id="Shape1">
            <desc type="0" basicInfo-basicType="1" basicInfo-roundedRectRadius="12" basicInfo-polygonSides="6" basicInfo-starPoints="5" bounding="rect(-78.0002,-125.5,156,251)" text="" font-familyName="Helvetica" font-pixelSize="20" font-bold="0" font-underline="0" font-alignment="1" strokeStyle="0" markerStart="0" markerEnd="0" shadowEnabled="0" shadowOffsetX="0" shadowOffsetY="2" shadowBlur="4" shadowOpacity="160" blurEnabled="0" blurRadius="4" transform="matrix(0.25641,0,0,0.511827,35.5,75.7344)" pers-center="0,0" pers-size="0,0" pers-start="0,0" pers-end="0,0" locked="0" mesh="" flag=""/>
            <path id="shapePath1" d="M15.4999,11.5001 L55.4999,11.5001 L55.4999,139.969 L15.4999,139.969 L15.4999,11.5001 Z" style="stroke:none;fill-rule:evenodd;fill:#03aaaa;fill-opacity:1;"/>
        </g>
        <g id="Shape2">
            <desc type="0" basicInfo-basicType="0" basicInfo-roundedRectRadius="12" basicInfo-polygonSides="6" basicInfo-starPoints="5" bounding="rect(0,0,0,0)" text="" font-familyName="Helvetica" font-pixelSize="20" font-bold="0" font-underline="0" font-alignment="1" strokeStyle="0" markerStart="0" markerEnd="0" shadowEnabled="0" shadowOffsetX="0" shadowOffsetY="2" shadowBlur="4" shadowOpacity="160" blurEnabled="0" blurRadius="4" transform="matrix(1,0,0,1,96.5,79.5)" pers-center="0,0" pers-size="0,0" pers-start="0,0" pers-end="0,0" locked="0" mesh="" flag=""/>
            <path id="shapePath2" d="M96.5,79.5 Z" style="stroke:none;fill-rule:evenodd;fill:#03aaaa;fill-opacity:1;"/>
        </g>
        <g id="Shape3">
            <desc type="0" basicInfo-basicType="0" basicInfo-roundedRectRadius="12" basicInfo-polygonSides="6" basicInfo-starPoints="5" bounding="rect(-45.589,-82.4999,91.1779,164.999)" text="" font-familyName="Helvetica" font-pixelSize="20" font-bold="0" font-underline="0" font-alignment="1" strokeStyle="0" markerStart="0" markerEnd="0" shadowEnabled="0" shadowOffsetX="0" shadowOffsetY="2" shadowBlur="4" shadowOpacity="160" blurEnabled="0" blurRadius="4" transform="matrix(0.616134,0,0,0.50303,96.5,54.5002)" pers-center="0,0" pers-size="0,0" pers-start="0,0" pers-end="0,0" locked="0" mesh="" flag=""/>
            <path id="shapePath3" d="M69.1366,16.5215 C70.4588,42.7792 59.9599,91.9339 104.256,95.9999 C111.68,90.9119 115.509,85.5139 120.892,79.3999 C128.802,57.7337 119.224,34.1299 124.589,14.0063 C107.171,24.1689 117.357,50.7768 107.953,67.8306 C101.312,71.865 90.3519,72.0453 87.6209,64.8124 C82.2751,47.9684 86.2029,21.3292 69.1366,13.0003 C69.0621,13.9144 67.5421,15.823 69.1366,16.5215 Z" style="stroke:none;fill-rule:evenodd;fill:url(#radialGradientFill3);fill-opacity:1;"/><defs><radialGradient id="radialGradientFill3" gradientUnits="userSpaceOnUse" cx="48.4419" cy="54.5002" r="96.1162" fx="96.5" fy="54.5002"><stop offset="0" stop-color="#a59e43" stop-opacity="1"/><stop offset="1" stop-color="#ffffff" stop-opacity="1"/></radialGradient></defs>
        </g>
        <g id="Shape4">
            <desc type="0" basicInfo-basicType="0" basicInfo-roundedRectRadius="12" basicInfo-polygonSides="6" basicInfo-starPoints="5" bounding="rect(-53.2964,-77.4999,106.592,154.999)" text="" font-familyName="Helvetica" font-pixelSize="20" font-bold="0" font-underline="0" font-alignment="1" strokeStyle="0" markerStart="0" markerEnd="0" shadowEnabled="0" shadowOffsetX="0" shadowOffsetY="2" shadowBlur="4" shadowOpacity="160" blurEnabled="0" blurRadius="4" transform="matrix(0.681026,0,0,0.53375,173.376,54.3657)" pers-center="0,0" pers-size="0,0" pers-start="0,0" pers-end="0,0" locked="0" mesh="" flag=""/>
            <path id="shapePath4" d="M137.761,95.7311 C138.21,68.5708 139.664,40.8551 137.08,14.0676 C139.655,14.5297 140.992,18.1008 143.89,19.4052 C167.152,29.4031 153.669,54.338 170.45,66.909 L175.217,66.909 C178.026,49.2221 177.041,23.7072 192.924,13.0002 C192.125,38.6651 212.785,67.6203 209.269,91.9951 C198.912,87.9171 200.457,69.3867 195.648,60.5043 C188.555,67.5056 161.969,84.0561 159.554,66.909 C157.936,66.0696 157.526,64.982 155.468,65.3075 C159.233,77.9091 139.921,87.6881 137.761,95.7311 Z" style="stroke:none;fill-rule:evenodd;fill:url(#radialGradientFill4);fill-opacity:1;"/><defs><radialGradient id="radialGradientFill4" gradientUnits="userSpaceOnUse" cx="120.256" cy="54.3657" r="106.24" fx="173.376" fy="54.3657"><stop offset="0" stop-color="#a59e43" stop-opacity="1"/><stop offset="1" stop-color="#ffffff" stop-opacity="1"/></radialGradient></defs>
        </g>
        <g id="Shape5">
            <desc type="0" basicInfo-basicType="0" basicInfo-roundedRectRadius="12" basicInfo-polygonSides="6" basicInfo-starPoints="5" bounding="rect(-51.1013,-76.8167,102.201,153.634)" text="" font-familyName="Helvetica" font-pixelSize="20" font-bold="0" font-underline="0" font-alignment="1" strokeStyle="0" markerStart="0" markerEnd="0" shadowEnabled="0" shadowOffsetX="0" shadowOffsetY="2" shadowBlur="4" shadowOpacity="160" blurEnabled="0" blurRadius="4" transform="matrix(0.706462,0,0,0.5077,245.773,52.0002)" pers-center="0,0" pers-size="0,0" pers-start="0,0" pers-end="0,0" locked="0" mesh="" flag=""/>
            <path id="shapePath5" d="M213.205,84.7225 C214.193,60.6076 212.695,36.6938 209.672,13.1371 C234.924,13.6288 284.882,8.15328 281.731,35.9837 C268.463,42.109 250.609,46.2341 238.637,49.1839 C251.223,60.5723 284.754,59.0307 276.786,78.6305 C261.953,88.2275 234.254,96.2255 217.443,86.7535 C215.405,85.1905 214.239,84.3385 213.205,83.1995 C231.794,83.6945 258.709,85.9855 256.299,66.9534 C246.09,61.422 225.861,59.0378 228.04,46.6454 C237.012,40.9082 253.842,37.9093 252.06,27.3528 C244.357,24.2128 235.476,21.6178 225.921,22.2757 C224.547,41.8394 216.375,59.9036 219.563,81.6765 C217.794,82.4935 216.696,83.8655 213.205,84.7225 Z" style="stroke:none;fill-rule:evenodd;fill:url(#radialGradientFill5);fill-opacity:1;"/><defs><radialGradient id="radialGradientFill5" gradientUnits="userSpaceOnUse" cx="190.669" cy="52.0003" r="110.208" fx="245.773" fy="52.0002"><stop offset="0" stop-color="#a59e43" stop-opacity="1"/><stop offset="1" stop-color="#ffffff" stop-opacity="1"/></radialGradient></defs>
        </g>
        <g id="Shape6">
            <desc type="2" basicInfo-basicType="0" basicInfo-roundedRectRadius="12" basicInfo-polygonSides="6" basicInfo-starPoints="5" bounding="rect(-138,-27.5,276,55)" text="Umanga Bista" font-familyName="Helvetica CY" font-pixelSize="40" font-bold="1" font-underline="0" font-alignment="0" strokeStyle="0" markerStart="0" markerEnd="0" shadowEnabled="0" shadowOffsetX="0" shadowOffsetY="2" shadowBlur="4" shadowOpacity="160" blurEnabled="0" blurRadius="4" transform="matrix(1,0,0,1,208.931,125.504)" pers-center="0,0" pers-size="0,0" pers-start="0,0" pers-end="0,0" locked="0" mesh="" flag=""/>
            <path id="shapePath6" d="M92.3759,126.117 C92.3759,129.099 91.5686,131.488 89.954,133.285 C88.2743,135.147 85.9566,136.078 83.0009,136.078 C80.1363,136.078 77.8121,135.128 76.0282,133.227 C74.2834,131.365 73.4111,128.995 73.4111,126.117 L73.4111,106 L78.3329,106 L78.3329,126.605 C78.3329,129.717 79.8368,131.273 82.8447,131.273 C85.9176,131.273 87.454,129.717 87.454,126.605 L87.454,106 L92.3759,106 L92.3759,126.117 M121.634,135.16 L117.044,135.16 L117.044,119.809 C117.044,119.105 116.813,118.549 116.351,118.139 C115.888,117.729 115.306,117.523 114.602,117.523 C113.509,117.523 112.669,117.992 112.083,118.93 C111.627,119.659 111.399,120.499 111.399,121.449 L111.399,135.16 L106.809,135.16 L106.809,119.809 C106.809,118.285 105.97,117.523 104.29,117.523 C103.261,117.523 102.467,117.934 101.907,118.754 C101.412,119.47 101.165,120.368 101.165,121.449 L101.165,135.16 L96.5556,135.16 L96.5556,113.48 L101.165,113.48 L101.165,116.723 C102.545,114.327 104.134,113.129 105.931,113.129 C107.988,113.129 109.642,114.203 110.892,116.352 C111.504,115.31 112.102,114.561 112.688,114.105 C113.522,113.454 114.557,113.129 115.794,113.129 C119.687,113.129 121.634,115.46 121.634,120.121 L121.634,135.16 M140.966,135.16 L136.083,135.16 C135.757,134.613 135.595,133.962 135.595,133.207 L135.595,132.992 C133.889,135.049 132.007,136.078 129.95,136.078 C128.166,136.078 126.812,135.46 125.888,134.223 C125.054,133.129 124.638,131.658 124.638,129.809 C124.638,127.751 125.106,126.195 126.044,125.141 C126.747,124.346 127.938,123.676 129.618,123.129 L134.403,121.566 C135.171,121.241 135.556,120.518 135.556,119.398 C135.556,117.641 134.625,116.762 132.763,116.762 C130.731,116.762 129.651,118.07 129.52,120.688 L125.204,120.688 C125.204,115.648 127.658,113.129 132.567,113.129 C137.463,113.129 139.911,115.421 139.911,120.004 L139.911,131.84 C139.911,132.803 140.263,133.656 140.966,134.398 L140.966,135.16 M135.556,126.605 L135.556,124.555 C134.709,125.049 133.296,125.57 131.317,126.117 C130.757,126.273 130.272,126.625 129.862,127.172 C129.452,127.719 129.247,128.285 129.247,128.871 C129.247,130.902 130.002,131.918 131.513,131.918 C134.208,131.918 135.556,130.147 135.556,126.605 M159.923,135.16 L155.313,135.16 L155.313,121.723 C155.313,120.355 155.183,119.392 154.923,118.832 C154.519,117.96 153.705,117.523 152.481,117.523 C151.336,117.523 150.418,117.842 149.727,118.48 C148.998,119.145 148.634,120.036 148.634,121.156 L148.634,135.16 L144.063,135.16 L144.063,113.48 L148.634,113.48 L148.634,116.762 C149.649,114.34 151.127,113.129 153.067,113.129 C157.638,113.129 159.923,115.635 159.923,120.648 L159.923,135.16 M179.747,135.727 C179.747,138.461 178.927,140.538 177.286,141.957 C175.75,143.298 173.601,143.969 170.841,143.969 C168.888,143.969 167.201,143.467 165.782,142.465 C164.194,141.332 163.399,139.828 163.399,137.953 L163.399,137.68 L168.224,137.68 L168.224,137.719 C168.224,138.448 168.601,139.047 169.356,139.516 C170.007,139.919 170.724,140.121 171.505,140.121 C172.573,140.121 173.494,139.695 174.268,138.842 C175.043,137.989 175.431,137.029 175.431,135.961 L175.431,132.914 C174.194,135.023 172.605,136.078 170.665,136.078 C167.983,136.078 165.984,134.867 164.669,132.445 C163.627,130.518 163.106,128.09 163.106,125.16 C163.106,121.905 163.569,119.268 164.493,117.25 C165.756,114.503 167.826,113.129 170.704,113.129 C172.813,113.129 174.389,114.34 175.431,116.762 L175.431,113.48 L179.747,113.48 L179.747,135.727 M175.509,124.887 C175.509,123.025 175.268,121.456 174.786,120.18 C174.083,118.331 172.95,117.406 171.388,117.406 C168.888,117.406 167.638,119.9 167.638,124.887 C167.638,129.6 168.888,131.957 171.388,131.957 C174.135,131.957 175.509,129.6 175.509,124.887 M199.2,135.16 L194.317,135.16 C193.992,134.613 193.829,133.962 193.829,133.207 L193.829,132.992 C192.123,135.049 190.242,136.078 188.184,136.078 C186.401,136.078 185.046,135.46 184.122,134.223 C183.289,133.129 182.872,131.658 182.872,129.809 C182.872,127.751 183.341,126.195 184.278,125.141 C184.981,124.346 186.173,123.676 187.852,123.129 L192.638,121.566 C193.406,121.241 193.79,120.518 193.79,119.398 C193.79,117.641 192.859,116.762 190.997,116.762 C188.966,116.762 187.885,118.07 187.755,120.688 L183.438,120.688 C183.438,115.648 185.893,113.129 190.802,113.129 C195.698,113.129 198.145,115.421 198.145,120.004 L198.145,131.84 C198.145,132.803 198.497,133.656 199.2,134.398 L199.2,135.16 M193.79,126.605 L193.79,124.555 C192.944,125.049 191.531,125.57 189.552,126.117 C188.992,126.273 188.507,126.625 188.097,127.172 C187.686,127.719 187.481,128.285 187.481,128.871 C187.481,130.902 188.237,131.918 189.747,131.918 C192.442,131.918 193.79,130.147 193.79,126.605 M231.251,125.688 C231.251,128.812 230.372,131.306 228.614,133.168 C227.351,134.496 225.418,135.16 222.813,135.16 L212.013,135.16 L212.013,106 L222.696,106 C224.936,106 226.801,106.713 228.292,108.139 C229.783,109.564 230.528,111.397 230.528,113.637 C230.528,116.124 229.773,118.122 228.263,119.633 C229.031,120.089 229.701,120.831 230.274,121.859 C230.925,123.044 231.251,124.32 231.251,125.688 M225.489,114.32 C225.489,111.846 224.48,110.609 222.462,110.609 L216.934,110.609 L216.934,117.836 L222.208,117.836 C224.395,117.836 225.489,116.664 225.489,114.32 M226.095,126.078 C226.095,123.656 224.91,122.445 222.54,122.445 L216.934,122.445 L216.934,130.551 L222.423,130.551 C224.871,130.551 226.095,129.06 226.095,126.078 M239.806,111 L235.216,111 L235.216,106 L239.806,106 L239.806,111 M239.806,135.16 L235.216,135.16 L235.216,113.48 L239.806,113.48 L239.806,135.16 M259.149,128.402 C259.149,133.52 256.435,136.078 251.005,136.078 C248.7,136.078 246.832,135.447 245.399,134.184 C243.915,132.868 243.14,131.072 243.075,128.793 L247.606,128.793 C248.205,131.15 249.533,132.328 251.591,132.328 C252.372,132.328 253.049,132.009 253.622,131.371 C254.143,130.798 254.403,130.206 254.403,129.594 C254.403,128.37 253.772,127.543 252.509,127.113 L247.88,125.551 C245.106,124.613 243.72,122.79 243.72,120.082 C243.72,115.447 246.187,113.129 251.122,113.129 C253.375,113.129 255.204,113.793 256.61,115.121 C258.017,116.449 258.72,118.233 258.72,120.473 L254.286,120.473 C254.195,118.129 253.043,116.957 250.829,116.957 C250.152,116.957 249.546,117.191 249.013,117.66 C248.44,118.155 248.153,118.734 248.153,119.398 C248.153,120.453 248.518,121.104 249.247,121.352 L254.989,123.285 C256.005,123.624 256.903,124.203 257.685,125.023 C258.661,126.039 259.149,127.165 259.149,128.402 M270.235,117.797 L267.677,117.797 L267.677,130.277 C267.677,131.527 267.931,132.152 268.438,132.152 L270.157,132.152 L270.157,135.551 C269.311,135.902 268.445,136.078 267.56,136.078 C266.31,136.078 265.248,135.668 264.376,134.848 C263.504,134.027 263.067,132.999 263.067,131.762 L263.067,117.797 L260.841,117.797 L260.841,113.48 L263.067,113.48 L263.067,108.031 L267.677,108.031 L267.677,113.48 L270.235,113.48 L270.235,117.797 M288.466,135.16 L283.583,135.16 C283.257,134.613 283.095,133.962 283.095,133.207 L283.095,132.992 C281.389,135.049 279.507,136.078 277.45,136.078 C275.666,136.078 274.312,135.46 273.388,134.223 C272.554,133.129 272.138,131.658 272.138,129.809 C272.138,127.751 272.606,126.195 273.544,125.141 C274.247,124.346 275.438,123.676 277.118,123.129 L281.903,121.566 C282.671,121.241 283.056,120.518 283.056,119.398 C283.056,117.641 282.125,116.762 280.263,116.762 C278.231,116.762 277.151,118.07 277.02,120.688 L272.704,120.688 C272.704,115.648 275.158,113.129 280.067,113.129 C284.963,113.129 287.411,115.421 287.411,120.004 L287.411,131.84 C287.411,132.803 287.763,133.656 288.466,134.398 L288.466,135.16 M283.056,126.605 L283.056,124.555 C282.209,125.049 280.796,125.57 278.817,126.117 C278.257,126.273 277.772,126.625 277.362,127.172 C276.952,127.719 276.747,128.285 276.747,128.871 C276.747,130.902 277.502,131.918 279.013,131.918 C281.708,131.918 283.056,130.147 283.056,126.605 " style="stroke:none;fill-rule:nonzero;fill:#616161;fill-opacity:1;"/>
        </g>
    </g>
</svg>
